<svg width="20" height="18" viewBox="0 0 20 18" fill="none" xmlns="http://www.w3.org/2000/svg">
<path d="M16.0453 11.1413C15.4107 11.0112 14.9088 11.2919 14.4642 11.537C14.009 11.7896 13.1434 12.4586 12.6473 12.2874C10.107 11.291 7.71777 9.17283 6.68353 6.74314C6.50125 6.26038 7.20016 5.43052 7.46336 4.99174C7.71875 4.56698 8.00728 4.08423 7.87568 3.47517C7.75676 2.92785 6.21856 1.06325 5.67462 0.553359C5.31591 0.216551 4.94841 0.031307 4.57117 0.00136859C3.15287 -0.0566372 1.56884 1.74622 1.29103 2.17752C0.595035 3.09719 0.598935 4.32093 1.30273 5.80475C2.99884 9.79031 9.41389 15.8051 13.6132 17.4817C14.3882 17.8269 15.0969 18 15.7334 18C16.3563 18 16.911 17.8344 17.3877 17.506C17.7473 17.3086 19.7174 15.7247 19.6656 14.3372C19.6345 13.9836 19.4405 13.6299 19.0915 13.2875C18.5603 12.7645 16.6156 11.2554 16.0453 11.1413Z" fill="#53E88B"/>
</svg>
