<svg width="25" height="25" viewBox="0 0 25 25" fill="none" xmlns="http://www.w3.org/2000/svg">
<g clip-path="url(#clip0_21_177)">
<path d="M24.3919 12.7338C24.3919 11.7095 24.3088 10.9621 24.1292 10.187H12.4454V14.8099H19.3035C19.1653 15.9588 18.4186 17.6889 16.7594 18.8515L16.7361 19.0063L20.4303 21.8711L20.6862 21.8966C23.0368 19.7236 24.3919 16.5262 24.3919 12.7338Z" fill="#4285F4"/>
<path d="M12.4455 24.9142C15.8054 24.9142 18.626 23.8069 20.6863 21.8969L16.7594 18.8517C15.7086 19.5853 14.2982 20.0974 12.4455 20.0974C9.15469 20.0974 6.36168 17.9244 5.36604 14.9209L5.22011 14.9333L1.37885 17.9092L1.32861 18.049C3.37497 22.1182 7.57836 24.9142 12.4455 24.9142Z" fill="#34A853"/>
<path d="M5.36612 14.9209C5.10341 14.1458 4.95138 13.3153 4.95138 12.4572C4.95138 11.599 5.10341 10.7685 5.3523 9.99343L5.34534 9.82835L1.45595 6.80469L1.32869 6.86528C0.485289 8.55392 0.00134277 10.4502 0.00134277 12.4572C0.00134277 14.4641 0.485289 16.3603 1.32869 18.049L5.36612 14.9209Z" fill="#FBBC05"/>
<path d="M12.4455 4.8167C14.7822 4.8167 16.3584 5.8271 17.2572 6.67147L20.7692 3.23884C18.6123 1.23187 15.8053 0 12.4455 0C7.57835 0 3.37497 2.7959 1.32861 6.86517L5.35222 9.99332C6.36167 6.98979 9.15468 4.8167 12.4455 4.8167Z" fill="#EB4335"/>
</g>
<defs>
<clipPath id="clip0_21_177">
<rect width="24.4048" height="25" fill="white"/>
</clipPath>
</defs>
</svg>
