<svg width="14" height="14" viewBox="0 0 14 14" fill="none" xmlns="http://www.w3.org/2000/svg">
<path d="M4.78947 6.33333L6.68421 8.33333L13 1.66667M9.21053 1H4.03158C2.97043 1 2.43985 1 2.03454 1.21799C1.67803 1.40973 1.38817 1.71569 1.20651 2.09202C1 2.51984 1 3.07989 1 4.2V9.8C1 10.9201 1 11.4802 1.20651 11.908C1.38817 12.2843 1.67803 12.5903 2.03454 12.782C2.43985 13 2.97043 13 4.03158 13H9.33684C10.398 13 10.9286 13 11.3339 12.782C11.6904 12.5903 11.9803 12.2843 12.1619 11.908C12.3684 11.4802 12.3684 10.9201 12.3684 9.8V7" stroke="black" stroke-width="2" stroke-linecap="round" stroke-linejoin="round"/>
</svg>
