<svg width="26" height="26" viewBox="0 0 26 26" fill="none" xmlns="http://www.w3.org/2000/svg">
<path d="M26 13C26 20.1796 20.1796 25.9998 13.0002 25.9998C5.82062 25.9998 0 20.1796 0 13C0 5.82037 5.82062 -7.62939e-06 13.0002 -7.62939e-06C20.1796 -7.62939e-06 26 5.82037 26 13Z" fill="url(#paint0_linear_1_1632)"/>
<path d="M5.1121 13.4758C5.13532 13.523 5.27826 13.8111 5.62962 14.1013C5.80505 14.2458 6.03326 14.3889 6.31669 14.4942C6.60012 14.5996 6.93804 14.6663 7.32532 14.666C7.71015 14.6663 8.04269 14.5996 8.31953 14.4908C8.73588 14.3283 9.01785 14.0742 9.18815 13.8592C9.35992 13.643 9.42736 13.4663 9.44202 13.4258C9.54122 13.1482 9.39681 12.8428 9.11925 12.7436C8.84168 12.6444 8.53626 12.7888 8.43706 13.0663L8.70339 13.1616L8.44121 13.0551L8.43706 13.0663L8.70339 13.1616L8.44121 13.0551L8.43926 13.0595C8.42655 13.0881 8.35618 13.2249 8.19711 13.3473C8.0361 13.4688 7.78883 13.5958 7.32532 13.5985C7.05826 13.5983 6.85252 13.5543 6.68857 13.4934C6.4435 13.4023 6.28737 13.2711 6.18939 13.165C6.14101 13.1125 6.10803 13.0663 6.0897 13.038L6.0726 13.0096L6.07137 13.0077L5.87957 13.1098L6.07578 13.0165L6.07137 13.0077L5.87957 13.1098L6.07578 13.0165C5.94872 12.7504 5.63035 12.6375 5.36426 12.7643C5.09818 12.8911 4.98529 13.2098 5.1121 13.4758Z" fill="#3C3C44"/>
<path d="M16.2575 13.4758C16.2807 13.5232 16.4237 13.8111 16.775 14.1013C16.9505 14.2458 17.1787 14.3889 17.4624 14.4942C17.7455 14.5996 18.0835 14.6663 18.4707 14.666C18.8558 14.6663 19.1881 14.5996 19.4649 14.4908C19.8813 14.3283 20.1633 14.0742 20.3338 13.8592C20.5053 13.643 20.5728 13.4663 20.5877 13.4258C20.6869 13.1482 20.5422 12.8428 20.2647 12.7436C19.9871 12.6444 19.6817 12.7888 19.5825 13.0663L19.8488 13.1616L19.5866 13.0551L19.5825 13.0663L19.8488 13.1616L19.5866 13.0551L19.5847 13.0595C19.572 13.0881 19.5016 13.2249 19.3425 13.3473C19.1815 13.4688 18.9342 13.5958 18.4707 13.5985C18.2037 13.5983 17.9979 13.5543 17.834 13.4934C17.5889 13.4023 17.4328 13.2708 17.3348 13.165C17.2862 13.1123 17.2534 13.0663 17.2349 13.0377L17.2178 13.0096L17.2165 13.0077L17.0247 13.1098L17.2209 13.0162L17.2165 13.0077L17.0247 13.1098L17.2209 13.0162C17.0939 12.7502 16.7753 12.6375 16.5094 12.7643C16.2433 12.8914 16.1305 13.21 16.2575 13.4758Z" fill="#3C3C44"/>
<path d="M17.2973 19.8729C17.2751 19.8201 17.0351 19.2496 16.3668 18.6786C16.0331 18.3939 15.5923 18.112 15.0289 17.9038C14.4657 17.6954 13.7818 17.5612 12.9666 17.5615C12.1515 17.5612 11.4708 17.6954 10.9127 17.9048C10.0744 18.218 9.51952 18.6996 9.18136 19.1067C8.84221 19.5142 8.71345 19.846 8.69757 19.8876C8.59422 20.1637 8.73446 20.471 9.01056 20.5744C9.28667 20.6778 9.59405 20.5375 9.6974 20.2614L9.46332 20.1739L9.69544 20.2665L9.6974 20.2614L9.46332 20.1739L9.69544 20.2665C9.69618 20.2634 9.86453 19.849 10.3439 19.4468C10.5841 19.245 10.9022 19.0434 11.3281 18.8892C11.754 18.7355 12.2893 18.6292 12.9666 18.629C13.6657 18.6292 14.2186 18.7424 14.6587 18.9051C15.3177 19.1494 15.7306 19.5062 15.9845 19.7979C16.1108 19.9438 16.1961 20.073 16.2476 20.1612C16.2735 20.2052 16.2909 20.2392 16.3006 20.2594L16.3099 20.2792L16.3107 20.2807L16.5965 20.1588L16.3087 20.2761L16.3107 20.2807L16.5965 20.1588L16.3087 20.2761C16.4201 20.549 16.7316 20.68 17.0046 20.5688C17.2775 20.4574 17.4085 20.1458 17.2973 19.8729Z" fill="#3C3C44"/>
<defs>
<linearGradient id="paint0_linear_1_1632" x1="24.2603" y1="6.4989" x2="1.74007" y2="19.501" gradientUnits="userSpaceOnUse">
<stop stop-color="#F3B445"/>
<stop offset="0.360925" stop-color="#F3B445"/>
<stop offset="1" stop-color="#F7954B"/>
</linearGradient>
</defs>
</svg>
